<?xml version="1.0" encoding="utf-8"?>
<!-- Generator: Adobe Illustrator 16.0.0, SVG Export Plug-In . SVG Version: 6.00 Build 0)  -->
<!DOCTYPE svg PUBLIC "-//W3C//DTD SVG 1.1//EN" "http://www.w3.org/Graphics/SVG/1.1/DTD/svg11.dtd">
<svg version="1.1" id="Layer_1" xmlns="http://www.w3.org/2000/svg" xmlns:xlink="http://www.w3.org/1999/xlink" x="0px" y="0px"
	 width="50px" height="50px" viewBox="0 0 50 50" enable-background="new 0 0 50 50" xml:space="preserve">
<path fill="#33485D" d="M25,0C11.193,0,0,11.193,0,25c0,13.807,11.193,25,25,25c13.807,0,25-11.193,25-25C50,11.193,38.807,0,25,0z
	 M25,47.462C12.595,47.462,2.539,37.404,2.539,25C2.539,12.595,12.595,2.539,25,2.539c12.404,0,22.462,10.056,22.462,22.461
	C47.462,37.404,37.404,47.462,25,47.462z"/>
<path fill="#2C3E50" d="M25,15.894c-4.81,4.809-7.45,6.647-7.45,10.762s3.336,7.451,7.45,7.451c4.113,0,7.45-3.336,7.45-7.451
	S29.811,20.703,25,15.894z"/>
<path fill="#33485D" d="M25,15.894v18.213c4.113,0,7.45-3.336,7.45-7.451S29.811,20.703,25,15.894z"/>
</svg>
