<?xml version="1.0" encoding="utf-8"?>
<!-- Generator: Adobe Illustrator 16.0.0, SVG Export Plug-In . SVG Version: 6.00 Build 0)  -->
<!DOCTYPE svg PUBLIC "-//W3C//DTD SVG 1.1//EN" "http://www.w3.org/Graphics/SVG/1.1/DTD/svg11.dtd">
<svg version="1.1" id="Layer_1" xmlns="http://www.w3.org/2000/svg" xmlns:xlink="http://www.w3.org/1999/xlink" x="0px" y="0px"
	 width="50px" height="50px" viewBox="0 0 50 50" enable-background="new 0 0 50 50" xml:space="preserve">
<g>
	<path fill="#221E1F" d="M35.678,12.5H14.323c-2.081,0-3.774,1.693-3.774,3.773v17.451c0,2.082,1.693,3.775,3.774,3.775h21.354
		c2.081,0,3.773-1.693,3.773-3.775V16.273C39.451,14.193,37.759,12.5,35.678,12.5z M37.941,33.725c0,1.248-1.016,2.264-2.264,2.264
		H14.323c-1.249,0-2.265-1.016-2.265-2.264V16.273c0-1.248,1.016-2.264,2.265-2.264h21.354c1.248,0,2.264,1.016,2.264,2.264V33.725z
		"/>
	<path fill="#221E1F" d="M32.916,29.43c-0.053-0.063-0.12-0.111-0.202-0.146c-0.083-0.035-0.185-0.053-0.306-0.053
		c-0.113,0-0.213,0.016-0.298,0.049s-0.157,0.078-0.217,0.139s-0.107,0.135-0.144,0.223s-0.063,0.186-0.08,0.295h1.411
		c-0.007-0.102-0.022-0.195-0.048-0.281S32.969,29.494,32.916,29.43z"/>
	<path fill="#221E1F" d="M23.015,29.494c-0.076-0.086-0.167-0.152-0.272-0.195c-0.105-0.045-0.219-0.066-0.339-0.066
		c-0.116,0-0.225,0.021-0.327,0.066c-0.103,0.043-0.193,0.109-0.271,0.195s-0.139,0.191-0.184,0.32
		c-0.045,0.127-0.067,0.273-0.067,0.439c0,0.156,0.022,0.297,0.067,0.422c0.045,0.127,0.105,0.234,0.184,0.322
		c0.078,0.09,0.169,0.158,0.271,0.205c0.103,0.049,0.211,0.072,0.327,0.072c0.12,0,0.233-0.023,0.338-0.07s0.194-0.115,0.272-0.203
		c0.076-0.09,0.137-0.197,0.181-0.322c0.044-0.127,0.065-0.268,0.065-0.426c0-0.166-0.021-0.313-0.065-0.439
		C23.15,29.686,23.09,29.58,23.015,29.494z"/>
	<path fill="#221E1F" d="M27.396,29.258c-0.116,0-0.225,0.021-0.326,0.063c-0.102,0.045-0.19,0.105-0.267,0.189
		c-0.076,0.082-0.137,0.184-0.181,0.301c-0.044,0.121-0.065,0.258-0.065,0.41c0,0.17,0.021,0.316,0.063,0.445
		c0.042,0.127,0.101,0.234,0.176,0.322c0.075,0.086,0.166,0.152,0.271,0.195c0.105,0.045,0.221,0.066,0.345,0.066
		c0.146,0,0.267-0.021,0.365-0.064s0.188-0.107,0.271-0.193v-1.525c-0.087-0.072-0.188-0.127-0.302-0.16
		S27.515,29.258,27.396,29.258z"/>
	<path fill="#221E1F" d="M34.746,15.349H15.255c-0.83,0-1.51,0.679-1.51,1.51v16.282c0,0.83,0.68,1.51,1.51,1.51h19.491
		c0.83,0,1.51-0.68,1.51-1.51V16.858C36.256,16.027,35.576,15.349,34.746,15.349z M23.226,24.789h0.825V19.7h-0.825v-1.44h3.413
		v1.44h-0.842v5.089h0.842v1.441h-3.413V24.789z M16.17,24.586l3.875-4.765h-2.15v1.263H16.18V18.26h6.053v1.651l-3.971,4.759h2.25
		v-1.236h1.709v2.797H16.17V24.586z M18.817,29.617h-0.494c-0.073-0.131-0.167-0.229-0.28-0.289s-0.244-0.092-0.393-0.092
		c-0.114,0-0.221,0.023-0.32,0.07c-0.101,0.047-0.188,0.115-0.262,0.203c-0.075,0.086-0.134,0.193-0.177,0.318
		s-0.064,0.266-0.064,0.42c0,0.152,0.021,0.289,0.064,0.412s0.103,0.229,0.178,0.314s0.162,0.154,0.261,0.199
		c0.1,0.047,0.206,0.07,0.32,0.07c0.168,0,0.314-0.041,0.439-0.121c0.124-0.082,0.223-0.201,0.297-0.359l0.404,0.199
		c-0.053,0.113-0.117,0.213-0.194,0.303s-0.165,0.166-0.262,0.229s-0.204,0.111-0.321,0.146c-0.116,0.033-0.239,0.051-0.369,0.051
		c-0.189,0-0.363-0.035-0.524-0.107c-0.16-0.07-0.299-0.17-0.415-0.297c-0.117-0.129-0.207-0.281-0.272-0.459
		c-0.064-0.176-0.097-0.369-0.097-0.58s0.033-0.404,0.102-0.582c0.068-0.176,0.163-0.328,0.282-0.455s0.259-0.227,0.418-0.299
		s0.33-0.107,0.513-0.107c0.172,0,0.334,0.029,0.487,0.09c0.153,0.059,0.288,0.15,0.403,0.27h0.276V29.617z M23.665,30.832
		c-0.066,0.18-0.159,0.332-0.278,0.459c-0.119,0.129-0.263,0.229-0.43,0.299c-0.168,0.072-0.353,0.107-0.554,0.107
		c-0.205,0-0.392-0.035-0.558-0.105s-0.309-0.17-0.429-0.297c-0.119-0.127-0.212-0.279-0.278-0.455
		c-0.066-0.178-0.101-0.373-0.103-0.586c0.002-0.217,0.036-0.412,0.104-0.59c0.067-0.176,0.162-0.328,0.282-0.455
		c0.121-0.127,0.266-0.225,0.432-0.293c0.167-0.068,0.35-0.104,0.55-0.104c0.201,0,0.386,0.035,0.554,0.104
		c0.167,0.068,0.311,0.164,0.43,0.289s0.212,0.277,0.278,0.455c0.066,0.176,0.101,0.373,0.101,0.588
		C23.766,30.461,23.731,30.654,23.665,30.832z M28.936,31.615h-0.889v-0.225c-0.087,0.09-0.188,0.16-0.305,0.211
		c-0.115,0.049-0.247,0.074-0.395,0.074c-0.184,0-0.355-0.033-0.514-0.096c-0.159-0.064-0.296-0.158-0.413-0.281
		c-0.116-0.125-0.207-0.275-0.273-0.455c-0.065-0.18-0.098-0.385-0.098-0.617c0-0.211,0.031-0.4,0.094-0.574
		c0.063-0.172,0.153-0.32,0.269-0.441c0.115-0.123,0.255-0.217,0.418-0.283c0.163-0.068,0.345-0.102,0.544-0.102
		c0.132,0,0.252,0.014,0.36,0.043s0.213,0.078,0.313,0.15v-1.043h-0.37v-0.453h0.859v3.641h0.399V31.615z M31.66,30.527
		c0.012,0.064,0.028,0.125,0.049,0.184c0.065,0.176,0.169,0.307,0.312,0.395c0.143,0.09,0.305,0.133,0.485,0.133
		c0.142,0,0.28-0.02,0.414-0.059c0.135-0.039,0.274-0.102,0.422-0.186l0.197,0.334c-0.179,0.123-0.358,0.215-0.539,0.273
		c-0.181,0.061-0.368,0.09-0.563,0.09c-0.184,0-0.354-0.031-0.512-0.092c-0.156-0.063-0.291-0.152-0.404-0.273
		s-0.202-0.271-0.266-0.453c-0.064-0.18-0.096-0.391-0.096-0.631c0-0.193,0.026-0.377,0.081-0.551
		c0.055-0.172,0.136-0.322,0.243-0.451s0.242-0.23,0.401-0.307s0.345-0.113,0.557-0.113c0.205,0,0.377,0.031,0.515,0.094
		s0.25,0.145,0.336,0.246c0.087,0.104,0.152,0.221,0.197,0.352s0.076,0.266,0.094,0.402c0.009,0.066,0.015,0.135,0.018,0.203
		c0.002,0.068,0.003,0.135,0.003,0.199h-1.961C31.644,30.393,31.649,30.465,31.66,30.527z M33.813,21.654
		c-0.11,0.324-0.281,0.605-0.513,0.844c-0.232,0.238-0.524,0.427-0.879,0.565c-0.354,0.139-0.772,0.208-1.256,0.208h-1.109v1.518
		h0.73v1.441h-3.302v-1.441h0.825v-5.083h-0.825V18.26h3.681c0.41,0,0.787,0.063,1.13,0.191c0.344,0.129,0.64,0.301,0.889,0.519
		c0.249,0.217,0.443,0.468,0.584,0.752c0.14,0.284,0.21,0.58,0.21,0.889C33.979,20.981,33.924,21.33,33.813,21.654z"/>
	<path fill="#221E1F" d="M31.749,19.995c-0.221-0.193-0.545-0.289-0.973-0.289h-0.72v2.14h0.72c0.399,0,0.717-0.084,0.952-0.252
		c0.234-0.168,0.352-0.435,0.352-0.8C32.08,20.454,31.971,20.188,31.749,19.995z"/>
</g>
</svg>
